<svg xmlns="http://www.w3.org/2000/svg" width="1024" height="512" viewBox="0 0 512 256" role="img" aria-label="soft smile vowel">
  <defs>
    <linearGradient id="upperLip" x1="0" x2="1" y1="0" y2="1">
      <stop offset="0" stop-color="#d86575"/>
      <stop offset="0.55" stop-color="#b73d52"/>
      <stop offset="1" stop-color="#7d2334"/>
    </linearGradient>
    <linearGradient id="lowerLip" x1="0" x2="1" y1="0" y2="1">
      <stop offset="0" stop-color="#e9828a"/>
      <stop offset="0.62" stop-color="#c54b5c"/>
      <stop offset="1" stop-color="#87283a"/>
    </linearGradient>
    <radialGradient id="innerMouth" cx="50%" cy="48%" r="58%">
      <stop offset="0" stop-color="#221019"/>
      <stop offset="0.72" stop-color="#3a1622"/>
      <stop offset="1" stop-color="#12070c"/>
    </radialGradient>
    <linearGradient id="tooth" x1="0" x2="0" y1="0" y2="1">
      <stop offset="0" stop-color="#fff7ea"/>
      <stop offset="1" stop-color="#dfd3bf"/>
    </linearGradient>
    <filter id="softShadow" x="-20%" y="-20%" width="140%" height="150%">
      <feDropShadow dx="0" dy="8" stdDeviation="8" flood-color="#39151f" flood-opacity="0.22"/>
    </filter>
  </defs>
  <g filter="url(#softShadow)">
    <path d="M103 129 C155 127 207 133 256 140 C305 133 357 127 409 129 C368 163 312 176 256 166 C200 176 144 163 103 129 Z" fill="url(#innerMouth)"/>
    <path d="M112 130 C161 127 210 132 256 139 C302 132 351 127 400 130 C361 151 309 160 256 154 C203 160 151 151 112 130 Z" fill="url(#tooth)" opacity="0.94"/>
      <path d="M70 126 C128 91 190 101 232 121 C249 129 263 129 280 121 C322 101 384 91 442 126 C376 146 317 152 256 142 C195 152 136 146 70 126 Z" fill="url(#upperLip)"/>
    <path d="M82 139 C143 178 201 184 256 170 C311 184 369 178 430 139 C375 194 313 205 256 185 C199 205 137 194 82 139 Z" fill="url(#lowerLip)"/>
    <path d="M92 136 C150 166 205 172 256 162 C307 172 362 166 420 136" fill="none" stroke="#f4a2a8" stroke-width="7" stroke-linecap="round" opacity="0.38"/>
    <path d="M112 118 C166 98 211 108 242 124" fill="none" stroke="#ffd0cc" stroke-width="8" stroke-linecap="round" opacity="0.34"/>
    <path d="M270 124 C302 108 346 98 400 118" fill="none" stroke="#ffd0cc" stroke-width="8" stroke-linecap="round" opacity="0.25"/>
  </g>
</svg>
