<svg xmlns="http://www.w3.org/2000/svg" width="1024" height="512" viewBox="0 0 512 256" role="img" aria-label="wide ee/i mouth">
  <defs>
    <linearGradient id="upperLip" x1="0" x2="1" y1="0" y2="1">
      <stop offset="0" stop-color="#d86575"/>
      <stop offset="0.55" stop-color="#b73d52"/>
      <stop offset="1" stop-color="#7d2334"/>
    </linearGradient>
    <linearGradient id="lowerLip" x1="0" x2="1" y1="0" y2="1">
      <stop offset="0" stop-color="#e9828a"/>
      <stop offset="0.62" stop-color="#c54b5c"/>
      <stop offset="1" stop-color="#87283a"/>
    </linearGradient>
    <radialGradient id="innerMouth" cx="50%" cy="48%" r="58%">
      <stop offset="0" stop-color="#221019"/>
      <stop offset="0.72" stop-color="#3a1622"/>
      <stop offset="1" stop-color="#12070c"/>
    </radialGradient>
    <linearGradient id="tooth" x1="0" x2="0" y1="0" y2="1">
      <stop offset="0" stop-color="#fff7ea"/>
      <stop offset="1" stop-color="#dfd3bf"/>
    </linearGradient>
    <filter id="softShadow" x="-20%" y="-20%" width="140%" height="150%">
      <feDropShadow dx="0" dy="8" stdDeviation="8" flood-color="#39151f" flood-opacity="0.22"/>
    </filter>
  </defs>
  <g filter="url(#softShadow)">
    <path d="M106 132 C157 125 207 129 256 135 C305 129 355 125 406 132 C365 157 312 167 256 159 C200 167 147 157 106 132 Z" fill="url(#innerMouth)"/>
    <path d="M110 130 C160 124 210 129 256 135 C302 129 352 124 402 130 C365 149 312 157 256 151 C200 157 147 149 110 130 Z" fill="url(#tooth)" opacity="0.94"/>
      <path d="M70 130 C124 98 188 105 231 123 C248 130 264 130 281 123 C324 105 388 98 442 130 C376 151 318 157 256 146 C194 157 136 151 70 130 Z" fill="url(#upperLip)"/>
    <path d="M78 140 C136 170 198 176 256 164 C314 176 376 170 434 140 C379 186 314 194 256 179 C198 194 133 186 78 140 Z" fill="url(#lowerLip)"/>
    <path d="M100 134 C153 155 205 159 256 153 C307 159 359 155 412 134" fill="none" stroke="#f4a2a8" stroke-width="7" stroke-linecap="round" opacity="0.38"/>
    <path d="M112 118 C166 98 211 108 242 124" fill="none" stroke="#ffd0cc" stroke-width="8" stroke-linecap="round" opacity="0.34"/>
    <path d="M270 124 C302 108 346 98 400 118" fill="none" stroke="#ffd0cc" stroke-width="8" stroke-linecap="round" opacity="0.25"/>
  </g>
</svg>
