<svg xmlns="http://www.w3.org/2000/svg" width="1024" height="512" viewBox="0 0 512 256" role="img" aria-label="closed neutral lips">
  <defs>
    <linearGradient id="upperLip" x1="0" x2="1" y1="0" y2="1">
      <stop offset="0" stop-color="#d86575"/>
      <stop offset="0.55" stop-color="#b73d52"/>
      <stop offset="1" stop-color="#7d2334"/>
    </linearGradient>
    <linearGradient id="lowerLip" x1="0" x2="1" y1="0" y2="1">
      <stop offset="0" stop-color="#e9828a"/>
      <stop offset="0.62" stop-color="#c54b5c"/>
      <stop offset="1" stop-color="#87283a"/>
    </linearGradient>
    <radialGradient id="innerMouth" cx="50%" cy="48%" r="58%">
      <stop offset="0" stop-color="#221019"/>
      <stop offset="0.72" stop-color="#3a1622"/>
      <stop offset="1" stop-color="#12070c"/>
    </radialGradient>
    <linearGradient id="tooth" x1="0" x2="0" y1="0" y2="1">
      <stop offset="0" stop-color="#fff7ea"/>
      <stop offset="1" stop-color="#dfd3bf"/>
    </linearGradient>
    <filter id="softShadow" x="-20%" y="-20%" width="140%" height="150%">
      <feDropShadow dx="0" dy="8" stdDeviation="8" flood-color="#39151f" flood-opacity="0.22"/>
    </filter>
  </defs>
  <g filter="url(#softShadow)">
    <path d="M104 132 C154 143 202 148 256 144 C310 148 358 143 408 132 C360 145 307 153 256 150 C205 153 152 145 104 132 Z" fill="url(#innerMouth)"/>
    <path d="M86 132 C130 97 185 103 230 123 C246 130 266 130 282 123 C327 103 382 97 426 132 C370 156 319 161 256 150 C193 161 142 156 86 132 Z" fill="url(#upperLip)"/>
    <path d="M92 134 C144 155 195 164 256 153 C317 164 368 155 420 134 C375 176 310 190 256 176 C202 190 137 176 92 134 Z" fill="url(#lowerLip)"/>
    <path d="M112 131 C164 145 206 148 256 145 C306 148 348 145 400 131" fill="none" stroke="#f4a2a8" stroke-width="7" stroke-linecap="round" opacity="0.38"/>
    <path d="M112 118 C166 98 211 108 242 124" fill="none" stroke="#ffd0cc" stroke-width="8" stroke-linecap="round" opacity="0.34"/>
    <path d="M270 124 C302 108 346 98 400 118" fill="none" stroke="#ffd0cc" stroke-width="8" stroke-linecap="round" opacity="0.25"/>
  </g>
</svg>
